<svg xmlns="http://www.w3.org/2000/svg"  viewBox="0 0 24 24" width="24px" height="24px"><path d="M 6 2 L 6 10 L 8 14 L 10 10 L 10 5 L 20 5 L 20 14 L 8 14 L 9.96875 16.125 L 9.65625 16.34375 L 7 18.1875 L 7 16 L 4 16 L 4 5 L 5 5 L 5 3 L 4 3 C 2.894531 3 2 3.894531 2 5 L 2 16 C 2 17.105469 2.894531 18 4 18 L 5 18 L 5 22 L 10.8125 18 L 20 18 C 21.105469 18 22 17.105469 22 16 L 22 5 C 22 3.894531 21.105469 3 20 3 L 10 3 L 10 2 Z M 8 9 L 9.34375 9.6875 L 8.71875 11 L 7.28125 11 L 6.65625 9.65625 Z"/></svg>